<svg viewBox="0 0 48 48" xmlns="http://www.w3.org/2000/svg" fill="#14ffbc"><g id="SVGRepo_bgCarrier" stroke-width="0"></g><g id="SVGRepo_tracerCarrier" stroke-linecap="round" stroke-linejoin="round" stroke="#CCCCCC" stroke-width="2.88"><defs><style>.a{fill:none;stroke:#14ffbc;stroke-linecap:round;stroke-linejoin:round;}</style></defs><path class="a" d="M23.0551,14.2115l6.942-6.9421c2.6788-2.6788,7.5386-2.1623,10.2172.5164s3.1951,7.5384.5163,10.2172L30.4481,28.2856c-2.6788,2.6788-7.5386,2.1623-10.2172-.5163"></path><path class="a" d="M24.9449,33.7885l-6.942,6.9421c-2.6788,2.6788-7.5386,2.1623-10.2172-.5164S4.5906,32.6758,7.2694,29.997L17.5519,19.7144c2.6788-2.6788,7.5386-2.1623,10.2172.5163"></path></g><g id="SVGRepo_iconCarrier"><defs><style>.a{fill:none;stroke:#14ffbc;stroke-linecap:round;stroke-linejoin:round;}</style></defs><path class="a" d="M23.0551,14.2115l6.942-6.9421c2.6788-2.6788,7.5386-2.1623,10.2172.5164s3.1951,7.5384.5163,10.2172L30.4481,28.2856c-2.6788,2.6788-7.5386,2.1623-10.2172-.5163"></path><path class="a" d="M24.9449,33.7885l-6.942,6.9421c-2.6788,2.6788-7.5386,2.1623-10.2172-.5164S4.5906,32.6758,7.2694,29.997L17.5519,19.7144c2.6788-2.6788,7.5386-2.1623,10.2172.5163"></path></g></svg>