<svg width="185" height="245" viewBox="0 0 185 245" fill="none" xmlns="http://www.w3.org/2000/svg">
    <path d="M31.1895 175.228C31.1895 177.371 32.0063 179.191 33.6398 180.678C35.2733 182.156 37.2795 182.895 39.6634 182.895H133.651V193H39.6634C35.8655 193 32.4861 192.233 29.5356 190.691C26.58 189.153 24.2522 187.047 22.5524 184.373C20.8474 181.703 20 178.655 20 175.228V132H31.1895V175.228Z" fill="#7AFFD9"/>
    <path d="M55.5946 112V163H43.584V112H55.5946Z" fill="#1CC495"/>
    <path d="M63.2158 112H114.193V143.517H75.2264V150.5L114.193 150.967V163H63.2158V131.483H102.183V124.033H63.2158V112Z" fill="#1CC495"/>
    <path d="M133.82 112V163H121.81V112H133.82Z" fill="#1CC495"/>
    <path d="M148.917 18C168.016 18 166.205 27.0849 166.205 44.5V201.5C166.205 218.925 168.016 227 148.917 227H20V206.72H144.205V38.0307H20V18H148.917Z" fill="#1CC495"/>
    <path fill-rule="evenodd" clip-rule="evenodd" d="M20.252 81.6V123H31.4186V93.323H114.169C117.945 93.323 121.304 92.4314 124.252 90.6371C127.21 88.8319 129.533 86.3771 131.231 83.2619C132.939 80.1357 133.794 76.5692 133.794 72.5624C133.794 68.5721 132.939 65.0221 131.231 61.9069C129.533 58.7806 127.21 56.3259 124.252 54.5316C121.304 52.7264 117.945 51.8237 114.169 51.8237H20.252V64H31.4186H35H114.206C116.633 64 118.611 64.4772 120.21 66.1779C121.82 67.8676 122.627 69.9976 122.627 72.5624C122.627 75.0722 121.82 77.1967 120.21 78.9249C118.611 80.6586 116.596 81.5227 114.169 81.5227H35V81.6H20.252Z" fill="#7AFFD9"/>
</svg>
