<svg width="162" height="165" viewBox="0 0 162 165" fill="none" xmlns="http://www.w3.org/2000/svg">
<path d="M20.11 121.433C20.11 123.19 20.9939 124.681 22.7618 125.9C24.5296 127.111 26.7008 127.717 29.2808 127.717H131V136H29.2808C25.1705 136 21.5132 135.372 18.32 134.107C15.1212 132.847 12.602 131.12 10.7623 128.929C8.91709 126.74 8 124.242 8 121.433V86H20.11V121.433Z" fill="#7AFFD9"/>
<path d="M54.373 65H109.87V99.3108H67.4485V106.913L109.87 107.422V120.522H54.373V86.2108H96.7946V78.1H54.373V65Z" fill="#1CC495"/>
<path fill-rule="evenodd" clip-rule="evenodd" d="M131.237 120.522V65H118.161V99.4355L127.077 103.647L118.161 107.859V120.522H131.237Z" fill="#1CC495"/>
<path fill-rule="evenodd" clip-rule="evenodd" d="M46.0755 77.9686V65H33V120.522H46.0755V85.7798L37.8075 81.8742L46.0755 77.9686Z" fill="#1CC495"/>
<path d="M140.221 8C159.81 8 157.953 14.5203 157.953 27.0191V139.699C157.953 152.204 159.81 158 140.221 158H8V143.445H138.768V22.3761H8V8H140.221Z" fill="#1CC495"/>
<path fill-rule="evenodd" clip-rule="evenodd" d="M8 49.9778V78H20.0969V57.9129H109.74C113.831 57.9129 117.47 57.3094 120.663 56.0949C123.868 54.873 126.385 53.2115 128.224 51.103C130.075 48.9869 131 46.5729 131 43.8609C131 41.16 130.075 38.7571 128.224 36.6486C126.385 34.5326 123.868 32.8711 120.663 31.6566C117.47 30.4347 113.831 29.8237 109.74 29.8237H8V38.0651H23.9765V38.0653H109.78C112.41 38.0653 114.553 38.3883 116.285 39.5395C118.029 40.6831 118.903 42.1248 118.903 43.8609C118.903 45.5596 118.029 46.9976 116.285 48.1674C114.553 49.3409 112.369 49.9257 109.74 49.9257H23.9765V49.9778H8Z" fill="#7AFFD9"/>
</svg>
